<?xml version="1.0" encoding="utf-8"?>
<!-- Generator: Adobe Illustrator 27.9.0, SVG Export Plug-In . SVG Version: 6.00 Build 0)  -->
<svg version="1.1" id="Camada_1" xmlns="http://www.w3.org/2000/svg" xmlns:xlink="http://www.w3.org/1999/xlink" x="0px" y="0px"
	 viewBox="0 0 512 512" style="enable-background:new 0 0 512 512;" xml:space="preserve">
<path d="M187.8,200l13.7-24h26.8c10.6,0,10.6-16,0-16h-31.4c-2.9,0-5.5,1.5-6.9,4l-16,28C168.7,201.2,182.6,209.1,187.8,200z
	 M187.8,320l13.7-24h26.8c10.6,0,10.6-16,0-16h-31.4c-2.9,0-5.5,1.5-6.9,4l-16,28C168.6,321.3,182.6,329.1,187.8,320L187.8,320z
	 M277.4,252c-5.3,9.3,8.7,17.1,13.9,7.9l13.7-24h26.8c10.6,0,10.6-16,0-16h-31.4c-2.9,0-5.5,1.5-6.9,4L277.4,252z"/>
<path d="M137.1,320l34.3,60c1.4,2.5,4.1,4,6.9,4h68.6c2.9,0,5.5-1.5,6.9-4l32-56h63.9c2.9,0,5.5-1.5,6.9-4l34.3-60
	c1.4-2.5,1.4-5.5,0-7.9l-34.3-60c-1.4-2.5-4.1-4-6.9-4h-63.9l-32-56c-1.4-2.5-4.1-4-6.9-4h-68.6c-2.9,0-5.5,1.5-6.9,4l-34.3,60
	c-1.4,2.5-1.4,5.5,0,7.9l32,56l-32,56C135.6,314.5,135.6,317.5,137.1,320L137.1,320z M374.8,256l-29.7,52h-59.3l-29.7-52l29.7-52
	h59.3L374.8,256z M182.9,144h59.3l29.7,52l-29.7,52h-59.3l-29.7-52L182.9,144z M182.9,264h59.3l29.7,52l-29.7,52h-59.3l-29.7-52
	L182.9,264z"/>
<path d="M442.9,301c-4.2-1.2-8.6,1.3-9.9,5.5C410.6,385.1,337.8,440,256,440c-100.3,0-182.1-80.7-183.9-180.6l18.3,18.3
	c7.4,7.4,18.9-3.7,11.3-11.3l-32-32c-3.1-3.1-8.2-3.1-11.3,0l-32,32c-7.5,7.5,3.8,18.8,11.3,11.3l18.4-18.4
	C57.8,368,146.8,456,256,456c88.9,0,168-59.7,192.4-145.1C449.6,306.6,447.1,302.2,442.9,301C442.9,301,442.9,301,442.9,301z
	 M474.3,234.3l-18.4,18.4C454.2,144,365.2,56,256,56c-88.1,0-164.9,56.5-191,140.5c-3.1,10.1,12.1,14.9,15.3,4.8
	C104.3,124,174.9,72,256,72c100.3,0,182.1,80.7,183.9,180.6l-18.3-18.3c-7.5-7.5-18.8,3.8-11.3,11.3l32,32c3.1,3.1,8.2,3.1,11.3,0
	l32-32C493.1,238.2,481.8,226.9,474.3,234.3L474.3,234.3z"/>
</svg>
