<?xml version="1.0" encoding="utf-8"?>
<!-- Generator: Adobe Illustrator 27.9.0, SVG Export Plug-In . SVG Version: 6.00 Build 0)  -->
<svg version="1.1" id="Camada_1" xmlns="http://www.w3.org/2000/svg" xmlns:xlink="http://www.w3.org/1999/xlink" x="0px" y="0px"
	 viewBox="0 0 480 480" style="enable-background:new 0 0 480 480;" xml:space="preserve">
<g>
	<path d="M437.1,448V280.8l3.3-16.5c8.3-41.7,12.6-84.2,12.7-126.8l24.8-62c5.2-13.2,0.5-28.2-11.2-36.1l-0.6-0.4
		c-36.9-24.7-85.1-24.7-122,0l-0.6,0.4c-11.8,7.9-16.4,22.9-11.2,36.1l24.8,62c0.1,42.6,4.4,85,12.7,126.8l3.3,16.5V448
		c0,17.7,14.3,32,32,32S437.1,465.7,437.1,448L437.1,448z M370.5,128l-23.4-58.4c-2.4-6.1-0.3-13.2,5.2-16.8l0.6-0.4
		c31.6-21.1,72.7-21.1,104.3,0l0.6,0.4c5.5,3.7,7.7,10.7,5.2,16.8L439.6,128h-16.8l6.1-30.4c0.9-4.3-1.9-8.6-6.2-9.4
		c-4.3-0.9-8.6,1.9-9.4,6.2c0,0,0,0.1,0,0.1l-6.7,33.6h-2.9l-6.7-33.6c-0.8-4.3-5-7.2-9.4-6.3c-4.3,0.8-7.2,5-6.3,9.4
		c0,0,0,0.1,0,0.1l6.1,30.4H370.5z M421.1,448c0,8.8-7.2,16-16,16s-16-7.2-16-16V288h32V448z M422.5,272h-34.9l-2.2-10.8
		c-7.7-38.6-11.8-77.8-12.4-117.2H437c-0.2,16-1,32-2.4,48h-21.5c-4.4,0-8,3.6-8,8s3.6,8,8,8H433c-2,17.8-4.8,35.6-8.3,53.2
		L422.5,272z M319.4,242l-15.7-5.2c-9.4-3.1-19.6,2-22.8,11.4c-0.6,1.8-0.9,3.8-0.9,5.7V336c-4.4,0-8,3.6-8,8v128c0,4.4,3.6,8,8,8
		h64c4.4,0,8-3.6,8-8V344c0-4.4-3.6-8-8-8v-59.8C344,260.7,334.1,246.9,319.4,242z M296,253.9c0-1.1,0.9-2,2-2c0.2,0,0.4,0,0.6,0.1
		l15.7,5.2c8.2,2.7,13.7,10.4,13.7,19V336h-32V253.9z M336,464h-48v-80h48V464z M336,368h-48v-16h48V368z M0,408v4
		c0,37.5,30.5,68,68,68h120c37.5,0,68-30.5,68-68v-4c0-4.4-3.6-8-8-8h-18.8c26.5-55.9,2.7-122.7-53.2-149.2S53.3,248.1,26.8,304
		c-14.4,30.4-14.4,65.6,0,96H8C3.6,400,0,403.6,0,408z M128,256c53,0,96,43,96,96c0,16.8-4.4,33.4-12.9,48H192
		c26.5-35.4,19.3-85.5-16-112c-35.4-26.5-85.5-19.3-112,16c-21.3,28.4-21.3,67.6,0,96H44.9C18.4,354.1,34.1,295.4,80,268.9
		C94.6,260.4,111.2,256,128,256z M139.2,289c6.6,1.2,13,3.4,18.9,6.6l-77.8,99.1c-3.8-4.3-7.1-9.1-9.6-14.2L139.2,289z M64.7,361.7
		c-5.4-34.9,18.5-67.5,53.4-72.9c0.5-0.1,1-0.1,1.4-0.2L64.7,361.7z M171.2,304.8c6.6,6,11.8,13.3,15.4,21.5
		c0,0-57.5,73.3-57.7,73.7H96.5L171.2,304.8z M104,416h48c4.4,0,8,3.6,8,8s-3.6,8-8,8h-48c-4.4,0-8-3.6-8-8S99.6,416,104,416z
		 M149,400l42.7-54.3c0.2,2.1,0.3,4.2,0.3,6.3c0,18.4-7.9,35.9-21.7,48H149z M81.4,416c-4.4,12.5,2.1,26.2,14.6,30.6
		c2.6,0.9,5.3,1.4,8,1.4h48c13.2,0,24-10.7,24-24c0-2.7-0.5-5.4-1.4-8l0,0h65.2c-2.1,27.1-24.7,48-51.8,48H68
		c-27.2,0-49.7-20.9-51.8-48H81.4z M227.6,118.7l12.8,8.5c6.2,4.1,11.2,9.8,14.5,16.4l2,4c2,4,6.8,5.6,10.7,3.6
		c1.5-0.8,2.8-2,3.6-3.6l2-4c3.3-6.6,8.3-12.3,14.5-16.4l12.8-8.5c3.7-2.5,4.7-7.4,2.2-11.1c-1-1.5-2.4-2.6-4.1-3.2
		c-12.7-4.3-22.7-14.2-26.9-26.9c-1.4-4.2-5.9-6.5-10.1-5.1c-2.4,0.8-4.3,2.7-5.1,5.1c-4.3,12.7-14.2,22.7-26.9,26.9
		c-4.2,1.4-6.5,5.9-5.1,10.1C225,116.2,226.1,117.7,227.6,118.7L227.6,118.7z M264,97.6c4.3,6.1,9.7,11.4,16,15.5l-1.2,0.8
		c-5.7,3.8-10.7,8.6-14.7,14.1c-4.1-5.5-9-10.3-14.7-14.1l-1.2-0.8C254.3,109,259.7,103.7,264,97.6z M210.5,152.4
		c-12.7-4.3-22.7-14.2-26.9-26.9c-1.4-4.2-5.9-6.5-10.1-5.1c-2.4,0.8-4.3,2.7-5.1,5.1c-4.3,12.7-14.2,22.7-26.9,26.9
		c-4.2,1.4-6.5,5.9-5.1,10.1c0.6,1.7,1.7,3.1,3.2,4.1l12.8,8.5c6.2,4.1,11.2,9.8,14.5,16.4l2,4c2,4,6.8,5.6,10.7,3.6
		c1.5-0.8,2.8-2,3.6-3.6l2-4c3.3-6.6,8.3-12.3,14.5-16.4l12.8-8.5c3.7-2.5,4.7-7.4,2.2-11.1C213.7,154.1,212.2,153,210.5,152.4
		L210.5,152.4z M190.7,161.9c-5.7,3.8-10.7,8.6-14.7,14.1c-4.1-5.5-9-10.3-14.7-14.1l-1.2-0.8c6.3-4.1,11.7-9.4,16-15.5
		c4.3,6.1,9.7,11.4,16,15.5L190.7,161.9z M231.6,55.2l12.8-8.5c3.7-2.5,4.7-7.4,2.2-11.1c-1-1.5-2.4-2.6-4.1-3.1
		c-12.7-4.3-22.7-14.2-26.9-26.9c-1.4-4.2-5.9-6.5-10.1-5.1c-2.4,0.8-4.3,2.7-5.1,5.1c-4.3,12.7-14.2,22.7-26.9,26.9
		c-4.2,1.4-6.5,5.9-5.1,10.1c0.6,1.7,1.7,3.1,3.2,4.1l12.8,8.5c6.2,4.1,11.2,9.8,14.5,16.4l2,4c2,4,6.8,5.6,10.7,3.6
		c1.5-0.8,2.8-2,3.6-3.6l2-4C220.5,65,225.5,59.3,231.6,55.2z M208,56c-4.1-5.5-9-10.3-14.7-14.1l-1.2-0.8c6.3-4.1,11.7-9.4,16-15.5
		c4.3,6.1,9.7,11.4,16,15.5l-1.2,0.8C217,45.7,212.1,50.5,208,56z"/>
</g>
</svg>
