<?xml version="1.0" encoding="utf-8"?>
<!-- Generator: Adobe Illustrator 27.9.0, SVG Export Plug-In . SVG Version: 6.00 Build 0)  -->
<svg version="1.1" id="Camada_1" xmlns="http://www.w3.org/2000/svg" xmlns:xlink="http://www.w3.org/1999/xlink" x="0px" y="0px"
	 viewBox="0 0 512 512" style="enable-background:new 0 0 512 512;" xml:space="preserve">
<g>
	<path d="M262.7,177.2c-5.1,7.1-8.1,15.8-8.1,25.2c0,23.8,19.4,43.2,43.2,43.2c9.4,0,18.1-3,25.2-8.1l36.2,36.2
		c2.7,2.7,7.2,2.7,9.9,0c0,0,0,0,0,0l106.9-106.9c17.3-17.3,26.9-40.4,26.9-65.1s-9.5-47.8-26.9-65.1
		c-17.3-17.3-40.4-26.9-65.1-26.9s-47.8,9.5-65.1,26.9l-44.9,44.9c-4.4-2.4-9.3-3.6-14.2-3.6c-16.5,0-30,13.4-30,30
		c0,5,1.2,9.9,3.6,14.2l-21.4,21.4c-2.7,2.7-2.7,7.2,0,9.9L262.7,177.2z M297.7,231.5c-16.1,0-29.2-13.1-29.2-29.2
		s13.1-29.2,29.2-29.2s29.2,13.1,29.2,29.2S313.8,231.5,297.7,231.5z M286.5,91.8c8.8,0,16,7.2,16,16c0,8.8-7.2,16-16,16
		s-16-7.2-16-16C270.6,99,277.7,91.8,286.5,91.8z M269.5,132.5c5,3.5,10.9,5.3,17,5.3c16.5,0,30-13.4,30-30c0-6.3-2-12.2-5.3-17
		l44.4-44.4c14.7-14.7,34.3-22.8,55.2-22.8c20.9,0,40.5,8.1,55.2,22.8s22.8,34.3,22.8,55.2s-8.1,40.5-22.8,55.2L364,258.7
		l-31.2-31.2c5.1-7.1,8.1-15.8,8.1-25.2c0-23.8-19.4-43.2-43.2-43.2c-9.4,0-18.1,3-25.2,8.1l-18.9-18.9L269.5,132.5z M31.2,168
		c2.5,0.7,5.2,1,7.8,1c5.2,0,10.3-1.4,14.9-4c6.9-4,11.6-10.3,13.7-17.4c8.3,6,18.5,9.5,29.5,9.5c10.9,0,21-3.5,29.3-9.4
		c2.2,7.5,7,13.7,13.8,17.6c4.5,2.6,9.7,4,14.9,4c10.4,0,20.5-5.4,26-15c4-6.9,5.1-15,3-22.7s-7-14.2-14-18.2
		c-6.8-3.9-14.8-5-22.4-3.1c0.1-1.4,0.2-2.7,0.2-4.1c0-20.4-12-38-29.3-46.1c5.2-5.4,8.4-12.7,8.4-20.8c0-16.5-13.4-30-30-30
		s-30,13.4-30,30c0,8.1,3.2,15.4,8.4,20.8c-17.3,8.1-29.3,25.7-29.3,46.1c0,1.3,0.1,2.6,0.2,3.9c-7.7-2-15.6-0.9-22.5,3.1
		c-6.9,4-11.9,10.5-14,18.2s-1,15.8,3,22.7S23.5,165.9,31.2,168L31.2,168z M155.4,123.3c2.8,0,5.5,0.7,8,2.1
		c7.6,4.4,10.3,14.2,5.8,21.8c-4.4,7.6-14.2,10.3-21.8,5.8c-7.6-4.4-10.3-14.2-5.8-21.8c2.1-3.7,5.6-6.4,9.7-7.4
		C152.6,123.5,154,123.3,155.4,123.3z M81.2,39.3c0-8.8,7.2-16,16-16s16,7.2,16,16s-7.2,16-16,16S81.2,48.1,81.2,39.3z M97.2,69.2
		c20.3,0,36.9,16.6,36.9,36.9S117.6,143,97.2,143s-36.9-16.6-36.9-36.9S76.9,69.2,97.2,69.2z M23.5,134.9c1.1-4.1,3.8-7.6,7.4-9.7
		c2.4-1.4,5.2-2.1,8-2.1c5.5,0,10.9,2.9,13.9,8c4.4,7.6,1.8,17.4-5.8,21.8c-3.7,2.1-8,2.7-12.1,1.6c-4.1-1.1-7.6-3.8-9.7-7.4
		C23,143.4,22.4,139,23.5,134.9z M502,415.5c-2.1-7.7-7-14.2-14-18.2c-7-4-14.9-4.9-22.2-3.1c0.1-1.5,0.2-2.9,0.2-4.4
		c0-20.4-12-38-29.4-46.1c5.2-5.4,8.5-12.7,8.5-20.8c0-16.5-13.4-30-30-30s-30,13.4-30,30c0,8.1,3.2,15.4,8.5,20.8
		c-17.3,8.1-29.4,25.7-29.4,46.1c0,1.4,0.1,2.8,0.2,4.2c-7.6-2-15.6-0.9-22.4,3.1c-6.9,4-11.9,10.5-14,18.2c-2.1,7.7-1,15.8,3,22.7
		c5.5,9.6,15.6,15,26,15c5.2,0,10.4-1.4,14.9-4c7-4,11.7-10.5,13.8-17.6c8.3,5.9,18.4,9.3,29.3,9.3c10.8,0,20.8-3.4,29.1-9.2
		c2.1,7.5,7,13.8,13.8,17.7c4.5,2.6,9.7,4,14.9,4c10.4,0,20.5-5.4,26-15C503,431.3,504,423.2,502,415.5L502,415.5z M415.1,306.8
		c8.8,0,16,7.2,16,16s-7.2,16-16,16s-16-7.2-16-16S406.3,306.8,415.1,306.8z M365,436.8c-7.6,4.4-17.4,1.8-21.8-5.8
		c-2.1-3.7-2.7-8-1.6-12.1s3.7-7.6,7.4-9.7c3.7-2.1,8-2.7,12.1-1.6c4.1,1.1,7.6,3.8,9.7,7.4C375.2,422.6,372.6,432.4,365,436.8
		L365,436.8z M415.1,426.6c-20.3,0-36.9-16.6-36.9-36.9s16.6-36.9,36.9-36.9s36.9,16.6,36.9,36.9S435.5,426.6,415.1,426.6z
		 M486.9,431.2c-4.4,7.6-14.2,10.3-21.8,5.8c-7.6-4.4-10.3-14.2-5.8-21.8c3-5.1,8.3-8,13.9-8c2.7,0,5.5,0.7,8,2.1
		c3.7,2.1,6.3,5.6,7.4,9.7S489,427.5,486.9,431.2z M375.9,200.9c16.5,0,30-13.4,30-30s-13.4-30-30-30s-30,13.4-30,30
		S359.3,200.9,375.9,200.9z M375.9,155c8.8,0,16,7.2,16,16c0,8.8-7.2,16-16,16s-16-7.2-16-16C359.9,162.1,367.1,155,375.9,155z
		 M162,209.4c0,16.5,13.4,30,30,30s30-13.4,30-30s-13.4-30-30-30S162,192.9,162,209.4z M191.9,193.4c8.8,0,16,7.2,16,16
		s-7.2,16-16,16c-8.8,0-16-7.2-16-16S183.1,193.4,191.9,193.4z M338.4,287.5c0-16.5-13.4-30-30-30s-30,13.4-30,30s13.4,30,30,30
		S338.4,304.1,338.4,287.5z M308.5,303.5c-8.8,0-16-7.2-16-16s7.2-16,16-16s16,7.2,16,16S317.3,303.5,308.5,303.5z M268.6,334
		c-5.5,0-10.9,1.5-15.7,4.4l-8.9-8.9c10.8-8.2,17.9-21.1,17.9-35.7c0-24.6-20-44.6-44.6-44.6c-14.6,0-27.5,7-35.7,17.9l-28.2-28.2
		c-2.7-2.7-7.2-2.7-9.9,0c0,0,0,0,0,0L36.5,345.7C19.2,363,9.7,386.1,9.7,410.8s9.5,47.8,26.9,65.1c17.3,17.3,40.4,26.9,65.1,26.9
		c24.6,0,47.8-9.5,65.1-26.9l86.3-86.3c4.7,2.9,10.1,4.4,15.7,4.4c16.5,0,30-13.4,30-30S285.1,334,268.6,334L268.6,334z
		 M217.2,263.2c16.9,0,30.6,13.7,30.6,30.6c0,16.9-13.7,30.6-30.6,30.6s-30.6-13.7-30.6-30.6C186.6,276.9,200.3,263.2,217.2,263.2z
		 M156.8,466c-14.7,14.7-34.3,22.8-55.2,22.8c-20.9,0-40.5-8.1-55.2-22.8c-14.7-14.7-22.8-34.3-22.8-55.2s8.1-40.5,22.8-55.2
		l101.9-101.9l26.4,26.4c-1.4,4.4-2.2,9.1-2.2,13.7c0,24.6,20,44.6,44.6,44.6c4.8,0,9.4-0.8,13.7-2.2l12.1,12.1
		c-2.9,4.7-4.4,10.1-4.4,15.7c0,5.5,1.5,10.9,4.4,15.7L156.8,466z M268.6,380c-8.8,0-16-7.2-16-16s7.2-16,16-16s16,7.2,16,16
		S277.4,380,268.6,380z"/>
</g>
</svg>
