<?xml version="1.0" encoding="utf-8"?>
<!-- Generator: Adobe Illustrator 27.9.0, SVG Export Plug-In . SVG Version: 6.00 Build 0)  -->
<svg version="1.1" id="Camada_1" xmlns="http://www.w3.org/2000/svg" xmlns:xlink="http://www.w3.org/1999/xlink" x="0px" y="0px"
	 viewBox="0 0 512 512" style="enable-background:new 0 0 512 512;" xml:space="preserve">
<style type="text/css">
	.st0{clip-path:url(#SVGID_00000049917183659805916610000005911183194800213377_);}
</style>
<g>
	<g>
		<defs>
			<rect id="SVGID_1_" y="0" width="512" height="512"/>
		</defs>
		<clipPath id="SVGID_00000135677984644636193980000008743544882422446504_">
			<use xlink:href="#SVGID_1_"  style="overflow:visible;"/>
		</clipPath>
		
			<g transform="matrix(1.33333 0 0 -1.33333 0 682.667)" style="clip-path:url(#SVGID_00000135677984644636193980000008743544882422446504_);">
			<g>
				<path d="M139.5,306.9c-4.1,0-7.5,3.4-7.5,7.5c0,13.8-11.2,25-25,25c-4.1,0-7.5,3.4-7.5,7.5c0,4.1,3.4,7.5,7.5,7.5
					c22,0,40-17.9,40-40C147,310.3,143.6,306.9,139.5,306.9z"/>
			</g>
			<g>
				<path d="M331.5,306.9c-4.1,0-7.5,3.4-7.5,7.5c0,22,17.9,40,40,40c4.1,0,7.5-3.4,7.5-7.5c0-4.1-3.4-7.5-7.5-7.5
					c-13.8,0-25-11.2-25-25C339,310.3,335.7,306.9,331.5,306.9z"/>
			</g>
			<g>
				<path d="M364,411.5c-22,0-40,17.9-40,40c0,4.1,3.4,7.5,7.5,7.5s7.5-3.4,7.5-7.5c0-13.8,11.2-25,25-25c4.1,0,7.5-3.4,7.5-7.5
					C371.5,414.9,368.1,411.5,364,411.5z"/>
			</g>
			<g>
				<path d="M235.5,306.4c-0.5,0-1,0.1-1.5,0.2s-1,0.2-1.4,0.4c-0.5,0.2-0.9,0.4-1.3,0.7c-0.4,0.3-0.8,0.6-1.1,0.9s-0.7,0.7-0.9,1.1
					c-0.3,0.4-0.5,0.8-0.7,1.3c-0.2,0.4-0.3,0.9-0.4,1.4c-0.1,0.5-0.1,1-0.1,1.5c0,0.5,0,1,0.1,1.5c0.1,0.5,0.2,0.9,0.4,1.4
					c0.2,0.5,0.4,0.9,0.7,1.3c0.3,0.4,0.6,0.8,0.9,1.1s0.7,0.7,1.1,0.9c0.4,0.3,0.8,0.5,1.3,0.7c0.5,0.2,0.9,0.3,1.4,0.4
					c2.4,0.5,5-0.3,6.8-2.1c0.3-0.3,0.7-0.7,0.9-1.1c0.3-0.4,0.5-0.8,0.7-1.3c0.2-0.5,0.3-0.9,0.4-1.4c0.1-0.5,0.2-1,0.2-1.5
					c0-0.5-0.1-1-0.2-1.5c-0.1-0.5-0.2-1-0.4-1.4c-0.2-0.5-0.4-0.9-0.7-1.3c-0.3-0.4-0.6-0.8-0.9-1.1
					C239.4,307.2,237.5,306.4,235.5,306.4z"/>
			</g>
			<g>
				<path d="M352.3,306.4h-83.1c-4.1,0-7.5,3.4-7.5,7.5c0,4.1,3.4,7.5,7.5,7.5h83.1c2.6,0,4.7,2.1,4.7,4.7v113.8
					c0,2.6-2.1,4.7-4.7,4.7H235.5c-4.1,0-7.5,3.4-7.5,7.5s3.4,7.5,7.5,7.5h116.8c10.8,0,19.7-8.8,19.7-19.7V326.1
					C372,315.2,363.2,306.4,352.3,306.4z"/>
			</g>
			<g>
				<path d="M201.8,306.4h-83.1c-10.8,0-19.7,8.8-19.7,19.7v65.1c0,4.1,3.4,7.5,7.5,7.5s7.5-3.4,7.5-7.5v-65.1
					c0-2.6,2.1-4.7,4.7-4.7h83.1c4.1,0,7.5-3.4,7.5-7.5C209.3,309.8,205.9,306.4,201.8,306.4z"/>
			</g>
			<g>
				<path d="M235.5,338.9c-18.2,0-34.3,11-41,28c-1.5,3.9,0.4,8.2,4.2,9.7c3.9,1.5,8.2-0.4,9.7-4.2c4.4-11.2,15-18.4,27-18.4
					c16,0,29,13,29,29c0,16-13,29-29,29c-10.8,0-20.6-5.9-25.7-15.5c-1.9-3.7-6.5-5.1-10.1-3.1c-3.7,1.9-5.1,6.5-3.1,10.1
					c7.7,14.5,22.6,23.4,38.9,23.4c24.3,0,44-19.7,44-44C279.5,358.6,259.8,338.9,235.5,338.9z"/>
			</g>
			<g>
				<path d="M313.5,375.4c-0.5,0-1,0.1-1.5,0.1c-0.5,0.1-1,0.2-1.4,0.4c-0.4,0.2-0.9,0.4-1.3,0.7c-0.4,0.3-0.8,0.6-1.1,0.9
					s-0.7,0.7-0.9,1.1c-0.3,0.4-0.5,0.8-0.7,1.3c-0.2,0.5-0.3,0.9-0.4,1.4s-0.1,1-0.1,1.5c0,0.5,0,1,0.1,1.5
					c0.1,0.5,0.2,0.9,0.4,1.4c0.2,0.5,0.4,0.9,0.7,1.3c0.3,0.4,0.6,0.8,0.9,1.1s0.7,0.7,1.1,0.9c0.4,0.3,0.8,0.5,1.3,0.7
					c0.5,0.2,0.9,0.3,1.4,0.4c1,0.2,2,0.2,2.9,0c0.5-0.1,1-0.2,1.4-0.4s0.9-0.4,1.3-0.7c0.4-0.3,0.8-0.6,1.1-0.9
					c0.3-0.3,0.7-0.7,0.9-1.1c0.3-0.4,0.5-0.8,0.7-1.3c0.2-0.5,0.3-0.9,0.4-1.4c0.1-0.5,0.1-1,0.1-1.5c0-0.5,0-1-0.1-1.5
					c-0.1-0.5-0.2-1-0.4-1.4c-0.2-0.5-0.4-0.9-0.7-1.3c-0.3-0.4-0.6-0.8-0.9-1.1c-0.4-0.3-0.7-0.7-1.1-0.9c-0.4-0.3-0.8-0.5-1.3-0.7
					s-0.9-0.3-1.4-0.4C314.5,375.5,314,375.4,313.5,375.4z"/>
			</g>
			<g>
				<path d="M191.8,359.4c-1.5,0-3,0.1-4.5,0.4l-27.1,4.7c-25.4,4.4-49.9,14.4-71.1,29.1H73.5c-4.1,0-7.5,3.4-7.5,7.5
					s3.4,7.5,7.5,7.5h18c1.6,0,3.1-0.5,4.3-1.4c19.9-14.1,43-23.7,67-27.9l27.1-4.7c5.2-0.9,10.3,2,12.1,7c1.9,5-0.3,10.8-5,13.4
					l-38.6,21.3c-7.3,4.1-11.9,11.8-11.9,20.2c0,12.7,10.3,23.1,23.1,23.1h59.5l-22,17c-7.1,5.5-16,8.5-24.9,8.5H73.5
					c-4.1,0-7.5,3.4-7.5,7.5c0,4.1,3.4,7.5,7.5,7.5h108.8c12.3,0,24.4-4.1,34.1-11.6l39.5-30.4c2.5-2,3.6-5.3,2.5-8.4
					c-1-3-3.9-5.1-7.1-5.1h-81.6c-4.4,0-8.1-3.6-8.1-8.1c0-2.9,1.6-5.6,4.2-7.1l38.6-21.3c11.2-6.2,16.2-19.8,11.8-31.8
					C212.3,366,202.5,359.4,191.8,359.4z"/>
			</g>
			<g>
				<path d="M73.5,377h-66c-4.1,0-7.5,3.4-7.5,7.5v120c0,4.1,3.4,7.5,7.5,7.5h66c4.1,0,7.5-3.4,7.5-7.5v-120
					C81,380.4,77.6,377,73.5,377z M15,392h51v105H15V392z"/>
			</g>
			<g>
				<path d="M310.4,137H163.5c-28.2,0-54.7,11-74.6,30.9l-40.7,40.7c-4.9,4.9-7.7,11.5-7.6,18.5s2.8,13.6,7.7,18.5
					c10.2,10.1,26.7,10,36.8-0.1l36.5-36.5c10.9-10.9,25.4-16.9,40.8-16.9h40.5c4.1,0,7.5-3.4,7.5-7.5c0-4.1-3.4-7.5-7.5-7.5h-40.5
					c-19.4,0-37.7,7.6-51.4,21.3L74.5,235c-4.3,4.3-11.3,4.3-15.7,0c-2.1-2.1-3.3-4.9-3.3-7.9c0-3,1.1-5.8,3.3-7.9l40.7-40.7
					c17.1-17.1,39.8-26.5,64-26.5h146.9c4.1,0,7.5-3.4,7.5-7.5C317.9,140.4,314.6,137,310.4,137z"/>
			</g>
			<g>
				<path d="M247.1,177.2h-81.7c-14.4,0-26.1,11.7-26.1,26.1c0,14.4,11.7,26.1,26.1,26.1h43.9l7.5,9c13.6,16.2,33.6,25.5,54.8,25.5
					c15.2,0,29.8-4.7,42.1-13.7l1.1-0.8c3.4-2.4,4.1-7.1,1.7-10.5c-2.4-3.4-7.1-4.1-10.5-1.7l-1.1,0.8c-9.7,7.1-21.2,10.8-33.3,10.8
					c-16.7,0-32.5-7.3-43.3-20.2l-9.8-11.6c-1.4-1.7-3.5-2.7-5.7-2.7h-47.4c-6.1,0-11.1-5-11.1-11.1s5-11.1,11.1-11.1h81.7
					c4.1,0,7.5-3.4,7.5-7.5C254.6,180.6,251.3,177.2,247.1,177.2z"/>
			</g>
			<g>
				<path d="M376.5,128h-66c-4.1,0-7.5,3.4-7.5,7.5v120c0,4.1,3.4,7.5,7.5,7.5h66c4.1,0,7.5-3.4,7.5-7.5v-120
					C384,131.4,380.6,128,376.5,128z M318,143h51v105h-51V143z"/>
			</g>
		</g>
	</g>
</g>
</svg>
