<?xml version="1.0" encoding="utf-8"?>
<!-- Generator: Adobe Illustrator 27.9.0, SVG Export Plug-In . SVG Version: 6.00 Build 0)  -->
<svg version="1.1" id="Camada_1" xmlns="http://www.w3.org/2000/svg" xmlns:xlink="http://www.w3.org/1999/xlink" x="0px" y="0px"
	 viewBox="0 0 512 512" style="enable-background:new 0 0 512 512;" xml:space="preserve">
<g>
	<path d="M157.8,136.2h15v15h-15V136.2z M187.8,136.2h15v15h-15V136.2z M423.2,122.7l14.5-4c-1.4-5.1-3-10.1-4.9-15l-14,5.4
		C420.4,113.6,421.9,118.1,423.2,122.7L423.2,122.7z M246.9,31.3h15v15h-15L246.9,31.3z M230,272.5l-14-5.5
		c-9.5,24.8-45.3,25.3-55.5,0.9l-13.8,5.9C162.1,310.4,215.8,309.7,230,272.5z M322.4,286c-12,0-22.9-7.1-27.6-18.2l-13.8,5.9
		c15.1,36,67.6,36,82.8,0l-13.8-5.9C345.2,278.9,334.4,286,322.4,286L322.4,286z M370.5,240.1l10.3-10.9c-12.3-11.6-28.5-18-45.4-18
		h-56.7v15h56.7C348.5,226.2,361,231.1,370.5,240.1L370.5,240.1z M233.2,226.2v-15h-57.4c-17,0-33.1,6.4-45.4,18l10.3,10.9
		c9.6-9,22-13.9,35.2-13.9L233.2,226.2z M214.9,369.8l-8.6,12.3c26.8,21.8,71.9,21.8,98.7,0l-8.6-12.3
		C275.1,386.3,234.6,386.4,214.9,369.8L214.9,369.8z"/>
	<path d="M395.3,375.1c7.4-17.8,12.4-36.8,15.2-58.2c20.3-12.6,32.8-35.1,32.8-59V162c-0.3-11.4-0.9-21.4-2.2-27.5l-14.8,2.5
		c3.3,14.1,1.6,72.9,2,89.3h-15.6c-0.2-101.8-67.3-173.6-173-164.5c-18-10.1-18.2-35.8-0.3-46h43.6c55.3,0,105.1,30.7,130,80.1
		l13.4-6.8C399.9,35.8,342.6,0.3,282.9,0.8C224.6,0,173.6-2.8,126.1,37.6L105.5,0L82.3,42.5L39.9,65.7l43.9,24.9
		c-10.1,16.8-14.4,42-15.9,68.8v98.5c0,23.9,12.6,46.4,32.8,59c5.2,53.7,35.7,109.5,79.7,142.8V512h15v-41.7
		c18.6,12,38.7,20.6,60.1,25.8c21.2-5.1,41.6-13.9,60.3-26V512h15v-52.5c9.2-7.2,17.8-15.2,25.7-23.8l19.1,34.9l23.2-42.5l42.5-23.2
		l-42.5-23.2L395.3,375.1z M428.3,241.3c0.6,21.5,0.8,38.8-15.3,55v-55H428.3z M71.2,65.7l22.2-12.2l12.2-22.2l12.2,22.2l22.2,12.2
		l-22.2,12.2l-12.2,22.2L93.4,77.8L71.2,65.7z M82.9,161.3c0-18.4,3.4-36.2,10-53l12.6,23.1l23.2-42.5l42.5-23.2l-33.4-18.2
		c22.8-18.2,50.6-29.1,79.8-31.2c-9.9,14.2-8.8,35.1,2.6,48.1c-80,13.2-121.9,84.3-122.4,161.9H82.9V161.3z M82.9,257.9v-16.6h14.9
		v55C87.8,286.3,82.9,272.4,82.9,257.9z M255.5,480.6C133.1,447.5,105.8,339.6,112.8,229l21.3-21.3c34.1-33.6,62.4-5.7,101-39.8
		l-9.9-11.3c-40.1,33.4-62.5-3.7-111.1,49.8c3.6-31.6,14.1-59.9,30.3-81.3c48.2-68.8,188.4-64.6,229.2,10
		c9.1,14.7,14.9,30,18.5,45.8c-30.1-41.9-76.8-69.7-129-75.6V90.7h-15c0.6,20.7-0.2,38.9-13.5,56l12,9.1
		c7.9-10.5,13.1-22.5,15.3-35.3c59.5,6.8,111.2,44.8,135.5,99.9c-0.4,41.9,3.7,98.2-11.5,137.4l-10.1-18.5l-23.2,42.5L310,404.9
		l36.2,19.8C321.6,452,289.8,471.7,255.5,480.6L255.5,480.6z M387.9,417.1l-12.2,22.2l-12.2-22.2l-22.2-12.2l22.2-12.2l12.2-22.2
		l12.2,22.2l22.2,12.2L387.9,417.1z"/>
	<path d="M465.8,330.9h-15v15h-15v15h15v15h15v-15h15v-15h-15V330.9z M30.5,106.4h-15v15h-15v15h15v15h15v-15h15v-15h-15V106.4z
		 M496.5,300.9h15v15h-15V300.9z M496.5,390.9h15v15h-15V390.9z"/>
</g>
</svg>
