<?xml version="1.0" encoding="utf-8"?>
<!-- Generator: Adobe Illustrator 27.9.0, SVG Export Plug-In . SVG Version: 6.00 Build 0)  -->
<svg version="1.1" id="Camada_1" xmlns="http://www.w3.org/2000/svg" xmlns:xlink="http://www.w3.org/1999/xlink" x="0px" y="0px"
	 viewBox="0 0 512 512" style="enable-background:new 0 0 512 512;" xml:space="preserve">
<g>
	<g>
		<path d="M196.2,362.7c-25.4,0-49.2-9.9-67.2-27.8c-37-37-37-97.3,0-134.4l0,0c37-37,97.3-37,134.4,0
			c17.9,17.9,27.8,41.8,27.8,67.2c0,25.4-9.9,49.2-27.8,67.2C245.4,352.8,221.6,362.7,196.2,362.7z M143.2,214.6L143.2,214.6
			c-29.2,29.2-29.2,76.8,0,106.1c14.2,14.2,33,22,53,22c20,0,38.9-7.8,53-22c14.2-14.2,22-33,22-53c0-20-7.8-38.9-22-53
			C220,185.4,172.4,185.4,143.2,214.6z"/>
	</g>
	<g>
		<path d="M92.6,440.4c-1.8,0-3.7-0.5-5.4-1.6c-4.7-3-6-9.1-3.1-13.8l31.3-49.2c-20.4-15.2-36-35.7-45.2-59.6
			c-2-5.2,0.6-10.9,5.7-12.9c5.2-2,10.9,0.6,12.9,5.7c17,44,60.1,73.6,107.3,73.6c63.4,0,115-51.6,115-115s-51.6-115-115-115
			c-47.2,0-90.3,29.6-107.3,73.6c-2,5.2-7.8,7.7-12.9,5.7c-5.2-2-7.7-7.8-5.7-12.9c4.8-12.4,11.3-23.9,19.3-34.3L46.7,146
			c-4.1-3.7-4.4-10-0.7-14.1c3.7-4.1,10-4.4,14.1-0.7L103,170c5.2-4.9,10.8-9.5,16.8-13.6c22.6-15.5,49-23.7,76.4-23.7
			c26.2,0,50.8,7.5,71.5,20.5l29.3-39.9c3.3-4.5,9.5-5.4,14-2.2c4.5,3.3,5.4,9.5,2.2,14L283.8,165c18.1,15.5,32.1,35.7,40,58.7
			l58.2-15.3c5.3-1.4,10.8,1.8,12.2,7.1c1.4,5.3-1.8,10.8-7.1,12.2L329,243.1c1.5,8,2.2,16.2,2.2,24.6c0,10.2-1.1,20.1-3.3,29.7
			l78.2,23.8c5.3,1.6,8.3,7.2,6.6,12.5c-1.6,5.3-7.2,8.3-12.5,6.6l-78.2-23.9c-19.6,50.4-68.6,86.2-125.9,86.2
			c-22.5,0-44.3-5.5-63.9-16.1L101,435.7C99.1,438.7,95.9,440.4,92.6,440.4z"/>
	</g>
	<g>
		<path d="M341.1,140c-38.6,0-70-31.4-70-70s31.4-70,70-70s70,31.4,70,70S379.7,140,341.1,140z M341.1,20c-27.6,0-50,22.4-50,50
			s22.4,50,50,50s50-22.4,50-50S368.7,20,341.1,20z"/>
	</g>
	<g>
		<path d="M451.9,405.7c-7.7,0-15.6-1.5-23.2-4.7c-30.5-12.8-44.9-48.1-32.1-78.6c0,0,0,0,0,0c12.8-30.5,48.1-44.9,78.6-32.1
			c30.5,12.8,44.9,48.1,32.1,78.6C497.7,391.8,475.3,405.7,451.9,405.7z M415.1,330.1L415.1,330.1c-8.5,20.3,1,43.8,21.4,52.4
			c20.3,8.5,43.8-1,52.4-21.4c8.5-20.3-1-43.8-21.4-52.4C447.2,300.2,423.7,309.8,415.1,330.1z"/>
	</g>
	<g>
		<path d="M409.8,246.5c-19.3,0-35-15.7-35-35s15.7-35,35-35s35,15.7,35,35S429.1,246.5,409.8,246.5z M409.8,196.5
			c-8.3,0-15,6.7-15,15s6.7,15,15,15s15-6.7,15-15S418.1,196.5,409.8,196.5z"/>
	</g>
	<g>
		<path d="M71.4,512c-12.4,0-24.8-4.7-34.2-14.2c-18.9-18.9-18.9-49.6,0-68.4l0,0c0,0,0,0,0,0c9.1-9.1,21.3-14.2,34.2-14.2
			s25.1,5,34.2,14.2c18.9,18.9,18.9,49.6,0,68.4C96.2,507.3,83.8,512,71.4,512z M71.4,435.2c-7.6,0-14.7,3-20.1,8.3l0,0
			c-11.1,11.1-11.1,29.1,0,40.2c11.1,11.1,29.1,11.1,40.2,0c11.1-11.1,11.1-29.1,0-40.2C86.1,438.2,79,435.2,71.4,435.2z
			 M44.3,436.4L44.3,436.4L44.3,436.4z"/>
	</g>
	<g>
		<path d="M35,155.3c-9.3,0-18.1-3.6-24.7-10.3c-13.6-13.6-13.6-35.9,0-49.5c0,0,0,0,0,0c13.6-13.6,35.9-13.6,49.5,0
			c13.6,13.6,13.6,35.9,0,49.5C53.1,151.6,44.3,155.3,35,155.3z M24.4,109.7c-5.8,5.8-5.8,15.4,0,21.2c2.8,2.8,6.6,4.4,10.6,4.4
			c4,0,7.8-1.6,10.6-4.4c5.8-5.8,5.8-15.4,0-21.2C39.8,103.8,30.2,103.8,24.4,109.7L24.4,109.7z"/>
	</g>
	<g>
		<path d="M196.2,317.7h-20c-5.5,0-10-4.5-10-10v-80c0-5.5,4.5-10,10-10h20c16.5,0,30,13.5,30,30c0,7.7-2.9,14.7-7.7,20
			c4.8,5.3,7.7,12.3,7.7,20C226.2,304.2,212.8,317.7,196.2,317.7z M186.2,297.7h10c5.5,0,10-4.5,10-10s-4.5-10-10-10h-10V297.7z
			 M196.2,257.7c5.5,0,10-4.5,10-10s-4.5-10-10-10h-10v20H196.2z"/>
	</g>
	<g>
		<path d="M71.2,277.7c-2.6,0-5.1-1-7.1-2.9c-3.9-3.9-3.9-10.2,0-14.1c3.9-3.9,10.2-3.9,14.1,0l0,0c3.9,3.9,3.9,10.2,0,14.1
			C76.3,276.7,73.8,277.7,71.2,277.7z"/>
	</g>
</g>
</svg>
