<?xml version="1.0" encoding="utf-8"?>
<!-- Generator: Adobe Illustrator 27.9.0, SVG Export Plug-In . SVG Version: 6.00 Build 0)  -->
<svg version="1.1" id="Camada_1" xmlns="http://www.w3.org/2000/svg" xmlns:xlink="http://www.w3.org/1999/xlink" x="0px" y="0px"
	 viewBox="0 0 512 512" style="enable-background:new 0 0 512 512;" xml:space="preserve">
<g>
	<path d="M249.5,480c120.5,0.4,209.4-129.5,147-241.2c21.4-16,34-41.1,34-67.8c0-44.3-70.9-126.9-79-136.2c-2.9-3.3-8-3.6-11.4-0.7
		c-0.2,0.2-0.5,0.4-0.7,0.7c-14.6,16.9-28.2,34.5-41,52.8c-24.2-31.2-42.7-52.6-42.9-52.8c-2.9-3.3-8-3.7-11.4-0.7
		c-0.2,0.2-0.5,0.5-0.7,0.7c-6.6,7.6-162,186.9-162,277.3C81.6,404.7,156.7,479.9,249.5,480L249.5,480z M345.5,52.3
		c23.7,28.5,69,89,69,118.6c0,38.1-30.9,69-69.1,69c-38.1,0-69-30.9-69-69C276.4,141.3,321.8,80.8,345.5,52.3L345.5,52.3z
		 M249.5,52.3c13.5,16.1,26.8,32.6,39.6,49.3c-15.6,24.3-28.6,50.4-28.6,69.4c-1.1,61.7,67.8,104.5,122.4,76.3
		c56,100.9-25.2,217-133.3,216.8c-83.9-0.1-151.9-68.1-152-152C97.5,237.2,220.5,86.7,249.5,52.3L249.5,52.3z"/>
	<path d="M310.9,178.5c12.8,4.2,22.8,14.2,27,27c1.4,4.2,6,6.4,10.2,5c2.3-0.8,4.2-2.6,5-5c4.5-12.6,14.4-22.5,27-27
		c4.2-1.5,6.4-6.1,4.8-10.3c-0.8-2.3-2.6-4-4.8-4.8c-12.6-4.5-22.5-14.4-27-27c-1.4-4.2-6-6.4-10.2-5c-2.3,0.8-4.2,2.6-5,5
		c-4.3,12.7-14.3,22.7-27,27c-4.2,1.5-6.4,6.1-4.8,10.3C306.9,175.9,308.6,177.7,310.9,178.5z M338.9,164.3c2.4-2.4,4.7-5.1,6.6-7.9
		c3.9,5.7,8.9,10.6,14.5,14.5c-5.7,4-10.6,8.9-14.5,14.5c-4-5.7-8.9-10.6-14.5-14.5C333.8,169,336.4,166.8,338.9,164.3L338.9,164.3z
		 M217.5,384h64c4.4,0,8-3.6,8-8s-3.6-8-8-8h-56v-32h56c4.4,0,8-3.6,8-8s-3.6-8-8-8h-56v-32h56c4.4,0,8-3.6,8-8s-3.6-8-8-8h-64
		c-4.4,0-8,3.6-8,8v96C209.5,380.4,213.1,384,217.5,384L217.5,384z"/>
</g>
</svg>
