<?xml version="1.0" encoding="utf-8"?>
<!-- Generator: Adobe Illustrator 27.9.0, SVG Export Plug-In . SVG Version: 6.00 Build 0)  -->
<svg version="1.1" id="Camada_1" xmlns="http://www.w3.org/2000/svg" xmlns:xlink="http://www.w3.org/1999/xlink" x="0px" y="0px"
	 viewBox="0 0 512 512" style="enable-background:new 0 0 512 512;" xml:space="preserve">
<g>
	<g>
		<g transform="matrix(1.33333 0 0 -1.33333 0 682.667)">
			<g>
				<path d="M176.9,218.7c-64,0-116.1,52.1-116.1,116.1c0,64,52.1,116.1,116.1,116.1c38.5,0,74.4-19,96-50.8c2.3-3.4,1.4-8.1-2-10.4
					c-3.4-2.3-8.1-1.4-10.4,2c-18.9,27.7-50.1,44.3-83.6,44.3c-55.8,0-101.1-45.4-101.1-101.1s45.4-101.1,101.1-101.1
					c5.3,0,10.5,0.4,15.7,1.2c4.1,0.6,7.9-2.2,8.6-6.3c0.6-4.1-2.2-7.9-6.3-8.6C189,219.2,183,218.7,176.9,218.7z"/>
			</g>
			<g>
				<path d="M136.1,160.6c-0.6,0-1.2,0.1-1.8,0.2c-2.1,0.5-3.9,1.9-4.9,3.9l-20.2,40l-44.4-6.1c-2.2-0.3-4.4,0.4-6,1.8
					c-1.6,1.5-2.6,3.5-2.5,5.7L57,251l-42.2,15.2c-2.1,0.7-3.7,2.3-4.5,4.4c-0.8,2-0.6,4.3,0.4,6.3l21.5,39.4L2,349.3
					c-1.5,1.6-2.2,3.8-1.9,6c0.3,2.2,1.5,4.1,3.3,5.3l37.3,24.9l-11.4,43.4c-0.6,2.1-0.2,4.4,1.1,6.2c1.2,1.8,3.2,3,5.4,3.2
					l44.6,4.7l10,43.7c0.5,2.1,1.9,3.9,3.8,5c1.9,1,4.2,1.1,6.3,0.3l41.7-16.6l29.2,34c1.4,1.7,3.5,2.6,5.7,2.6s4.3-1,5.7-2.6
					l29.2-34l41.7,16.6c2,0.8,4.3,0.7,6.3-0.3c1.9-1,3.3-2.8,3.8-5l10-43.7l44.6-4.7c2.2-0.2,4.1-1.4,5.4-3.2
					c1.2-1.8,1.6-4.1,1.1-6.2l-9.5-36.1c-1.1-4-5.2-6.4-9.2-5.3c-4,1.1-6.4,5.2-5.3,9.2l7.3,27.6l-41.2,4.3
					c-3.2,0.3-5.8,2.7-6.5,5.8l-9.3,40.4l-38.5-15.3c-3-1.2-6.4-0.3-8.5,2.1l-27,31.5l-27-31.5c-2.1-2.4-5.5-3.3-8.5-2.1L103,474.8
					l-9.3-40.4c-0.7-3.1-3.3-5.4-6.5-5.8l-41.2-4.3l10.6-40.1c0.8-3.1-0.4-6.4-3.1-8.2l-34.5-23l28-30.6c2.2-2.4,2.6-5.8,1.1-8.7
					l-19.9-36.4l39-14.1c3-1.1,5-4,5-7.2l-0.7-41.4l41.1,5.7c3.2,0.4,6.3-1.2,7.7-4.1l18.7-37l33.7,24.1c2.6,1.9,6.1,1.9,8.7,0
					l16.9-12c3.4-2.4,4.2-7.1,1.7-10.5c-2.4-3.4-7.1-4.2-10.5-1.7l-12.5,8.9L140.4,162C139.2,161.1,137.6,160.6,136.1,160.6z"/>
			</g>
			<g>
				<path d="M348.4,340.4h-29.5c-4.1,0-7.5,3.4-7.5,7.5c0,4.1,3.4,7.5,7.5,7.5h29.5c0.7,0,1.3,0.6,1.3,1.3v29.3
					c0,0.7-0.6,1.3-1.3,1.3H221.9c-0.7,0-1.3-0.6-1.3-1.3v-29.3c0-0.7,0.6-1.3,1.3-1.3h29.5c4.1,0,7.5-3.4,7.5-7.5
					c0-4.1-3.4-7.5-7.5-7.5h-29.5c-9,0-16.3,7.3-16.3,16.3v29.3c0,9,7.3,16.3,16.3,16.3h126.5c9,0,16.3-7.3,16.3-16.3v-29.3
					C364.6,347.7,357.3,340.4,348.4,340.4z"/>
			</g>
			<g>
				<path d="M353.1,128H217.3c-17,0-30.9,13.9-30.9,30.9v138.3c0,12.3,7.2,23.7,18.3,29c5.9,2.8,9.8,8.9,9.8,15.5v6.1
					c0,4.1,3.4,7.5,7.5,7.5c4.1,0,7.5-3.4,7.5-7.5v-6.1c0-12.3-7.2-23.7-18.3-29c-5.9-2.8-9.8-8.9-9.8-15.5V158.9
					c0-8.8,7.1-15.9,15.9-15.9h135.8c8.8,0,15.9,7.1,15.9,15.9v138.3c0,6.6-3.8,12.7-9.7,15.5c0,0-0.1,0-0.1,0
					c-11.1,5.3-18.3,16.7-18.3,29v6.1c0,4.1,3.4,7.5,7.5,7.5c4.1,0,7.5-3.4,7.5-7.5v-6.1c0-6.6,3.8-12.7,9.7-15.5c0,0,0.1,0,0.1,0
					c11.1-5.3,18.3-16.7,18.3-29V158.9C384,141.9,370.1,128,353.1,128z"/>
			</g>
			<g>
				<path d="M282.6,197.8h-9.5c-4.1,0-7.5,3.4-7.5,7.5v60c0,4.1,3.4,7.5,7.5,7.5h9.5c17.1,0,31-13.9,31-31v-13
					C313.6,211.7,299.7,197.8,282.6,197.8z M280.6,212.8h2c8.8,0,16,7.2,16,16v13c0,8.8-7.2,16-16,16h-2V212.8z"/>
			</g>
			<g>
				<path d="M285.1,167.8c-37.2,0-67.5,30.3-67.5,67.5s30.3,67.5,67.5,67.5s67.5-30.3,67.5-67.5S322.4,167.8,285.1,167.8z
					 M285.1,287.8c-28.9,0-52.5-23.6-52.5-52.5s23.6-52.5,52.5-52.5c28.9,0,52.5,23.6,52.5,52.5S314.1,287.8,285.1,287.8z"/>
			</g>
			<g>
				<path d="M285.1,340.4c-0.5,0-1,0-1.5,0.1c-0.5,0.1-1,0.2-1.4,0.4c-0.4,0.2-0.9,0.4-1.3,0.7c-0.4,0.3-0.8,0.6-1.1,0.9
					s-0.7,0.7-0.9,1.1c-0.3,0.4-0.5,0.8-0.7,1.3c-0.2,0.5-0.3,0.9-0.4,1.4c-0.1,0.5-0.2,1-0.2,1.5c0,0.5,0.1,1,0.2,1.5
					c0.1,0.5,0.2,1,0.4,1.4c0.2,0.5,0.4,0.9,0.7,1.3c0.3,0.4,0.6,0.8,0.9,1.1s0.7,0.7,1.1,0.9c0.4,0.3,0.8,0.5,1.3,0.7
					c0.5,0.2,0.9,0.3,1.4,0.4c1,0.2,2,0.2,2.9,0c0.5-0.1,1-0.2,1.4-0.4c0.5-0.2,0.9-0.4,1.3-0.7c0.4-0.3,0.8-0.6,1.1-0.9
					s0.7-0.7,0.9-1.1c0.3-0.4,0.5-0.8,0.7-1.3c0.2-0.4,0.3-0.9,0.4-1.4c0.1-0.5,0.2-1,0.2-1.5c0-0.5-0.1-1-0.2-1.5
					c-0.1-0.5-0.2-0.9-0.4-1.4c-0.2-0.5-0.4-0.9-0.7-1.3c-0.3-0.4-0.6-0.8-0.9-1.1s-0.7-0.7-1.1-0.9c-0.4-0.3-0.8-0.5-1.3-0.7
					c-0.5-0.2-0.9-0.3-1.4-0.4C286.1,340.4,285.6,340.4,285.1,340.4z"/>
			</g>
		</g>
	</g>
</g>
</svg>
