<?xml version="1.0" encoding="utf-8"?>
<!-- Generator: Adobe Illustrator 27.9.0, SVG Export Plug-In . SVG Version: 6.00 Build 0)  -->
<svg version="1.1" id="Camada_1" xmlns="http://www.w3.org/2000/svg" xmlns:xlink="http://www.w3.org/1999/xlink" x="0px" y="0px"
	 viewBox="0 0 512 512" style="enable-background:new 0 0 512 512;" xml:space="preserve">
<g>
	<g>
		<path d="M230.6,512C123,512,35.5,424.8,35.5,317.6c0-38.5,10.1-78.6,29.9-119.4c15.7-32.3,37.6-65,65-97.3
			c46.5-54.8,92.3-89,94.2-90.4c3.5-2.6,8.4-2.6,11.9,0c1.4,1,34.2,25.5,72.5,66.2c3.8,4,3.6,10.3-0.4,14.1
			c-4,3.8-10.3,3.6-14.1-0.4C266.8,61,241.7,40,230.6,31.2c-13.8,11-49.7,41.1-85.2,83c-41,48.4-89.9,123-89.9,203.5
			C55.5,413.8,134,492,230.6,492c46.8,0,90.7-18.1,123.8-51.1c33.1-32.9,51.3-76.7,51.3-123.3c0-20.4-3.1-41.5-9.3-62.9
			c-1.5-5.3,1.5-10.9,6.8-12.4c5.3-1.5,10.8,1.5,12.4,6.8c6.7,23.1,10.1,46.2,10.1,68.4c0,51.9-20.3,100.7-57.1,137.5
			C331.7,491.8,282.7,512,230.6,512z"/>
	</g>
	<g>
		<path d="M371.9,267.1c-57.7,0-104.6-46.7-104.6-104.2c0-36.2,17.2-75.6,49.7-113.9C341.1,20.5,365,2.7,366,2
			c3.5-2.6,8.4-2.6,11.9,0c1,0.7,24.8,18.5,49,47c32.5,38.3,49.7,77.7,49.7,113.9C476.5,220.3,429.6,267.1,371.9,267.1z M371.9,22.8
			c-20.2,16.7-84.6,75.1-84.6,140.1c0,46.4,37.9,84.2,84.6,84.2c46.6,0,84.6-37.8,84.6-84.2C456.5,97.9,392.1,39.5,371.9,22.8z"/>
	</g>
	<g>
		<path d="M280,402c-4,0-7.8-2.5-9.4-6.5l-9.2-24.3h-61.8l-9.3,24.3c-2,5.2-7.7,7.8-12.9,5.8c-5.2-2-7.8-7.7-5.8-12.9l47-123.6
			c0-0.1,0.1-0.2,0.1-0.2c2-4.8,6.6-8,11.9-8c0,0,0,0,0,0c5.2,0,9.9,3.1,11.9,8c0,0.1,0.1,0.2,0.1,0.3l46.6,123.6
			c1.9,5.2-0.7,10.9-5.8,12.9C282.4,401.8,281.2,402,280,402z M207.3,351.2H254l-23.2-61.5L207.3,351.2z M371.9,215L371.9,215
			c-3.7,0-7-2-8.8-5.2c-7.9-14.4-19.6-26.2-34-34c-3.2-1.8-5.2-5.1-5.2-8.8c0-3.7,2-7,5.2-8.8c14.4-7.9,26.1-19.6,34-34
			c1.8-3.2,5.1-5.2,8.8-5.2c3.7,0,7,2,8.8,5.2c7.9,14.4,19.6,26.2,34,34c3.2,1.8,5.2,5.1,5.2,8.8c0,3.7-2,7-5.2,8.8
			c-14.4,7.9-26.1,19.6-34,34C378.9,213,375.6,215,371.9,215z M352.2,167c7.4,5.7,14,12.3,19.7,19.7c5.7-7.4,12.3-14,19.7-19.7
			c-7.4-5.7-14-12.3-19.7-19.7C366.3,154.7,359.6,161.4,352.2,167z"/>
	</g>
</g>
</svg>
