<?xml version="1.0" encoding="utf-8"?>
<!-- Generator: Adobe Illustrator 27.9.0, SVG Export Plug-In . SVG Version: 6.00 Build 0)  -->
<svg version="1.1" id="Camada_1" xmlns="http://www.w3.org/2000/svg" xmlns:xlink="http://www.w3.org/1999/xlink" x="0px" y="0px"
	 viewBox="0 0 512 512" style="enable-background:new 0 0 512 512;" xml:space="preserve">
<g>
	<path d="M452.6,224H496v-16h-43.4l-19.3-32l29.7-51.9l-13.9-8L419.4,168H376c-2.8,0-5.4,1.5-6.9,3.9L347.4,208h-38.8L279,156
		l-13.9,8l29.7,52l-19.3,32H248v16h27.4l19.3,32L265,348l13.9,8l29.7-52h38.8l21.7,36.1c1.4,2.4,4.1,3.9,6.9,3.9h43.4l29.7,52
		l13.9-8l-29.7-52l19.3-32H496v-16h-43.4l-19.2-32L452.6,224z M380.6,184h38.9l19.2,32l-19.2,32h-38.9l-9.6-16l-9.6-16L380.6,184z
		 M308.6,224h38.9l19.2,32l-19.2,32h-38.9l-19.2-32L308.6,224z M419.4,328h-38.9l-19.2-32l19.2-32h38.9l19.2,32L419.4,328z"/>
	<path d="M320,160h16v16h16v-48h-16v16h-16v-16h-16v48h16V160z M352,376v-16c0-13.3-10.7-24-24-24s-24,10.7-24,24v16
		c0,13.3,10.7,24,24,24S352,389.3,352,376z M320,376v-16c0-4.4,3.6-8,8-8s8,3.6,8,8v16c0,4.4-3.6,8-8,8S320,380.4,320,376z M216,456
		h8c4.4,0,8-3.6,8-8V64c0-4.4-3.6-8-8-8h-8C105.5,56,16,145.5,16,256S105.5,456,216,456z M208,256c0.1-2.8,0.9-5.6,2.4-8
		c1.4-2.3,3.3-4.1,5.6-5.4v27.7c-2.4-1.3-4.3-3.3-5.7-5.6C208.7,262.1,207.9,259,208,256z M216,225c-4.8,1.2-9.2,3.5-12.9,6.7
		l-88.6-88.6c27.8-25.2,64-39.2,101.5-39.1V225z M103.1,154.5l90.8,90.8c-0.3,0.9-0.6,1.8-0.9,2.7H64.4
		C66.1,213.3,79.8,180.3,103.1,154.5z M193,264c0,1,0.6,1.8,0.9,2.8l-90.8,90.7c-23.3-25.8-37-58.8-38.7-93.5H193z M203.1,280
		c3.7,3.2,8.1,5.5,12.9,6.7V408c-37.5,0.1-73.7-13.9-101.5-39.1L203.1,280z M85.9,125.9c34.4-34.6,81.3-54,130.1-53.9v16
		c-92.8,0-168,75.2-168,168s75.2,168,168,168v16c-101.6,0-184-82.4-183.9-184.1C32.1,207.2,51.4,160.4,85.9,125.9L85.9,125.9z"/>
</g>
</svg>
